<svg width="512" height="512" viewBox="0 0 512 512" fill="none" xmlns="http://www.w3.org/2000/svg">
  <rect width="512" height="512" rx="128" fill="#4338ca"/>
  <path d="M364 366H158C148.059 366 140 357.941 140 348V344C140 334.059 148.059 326 158 326H206.84C236.46 326 261.2 307.38 271.6 279.6H176C166.059 279.6 158 271.541 158 261.6V257.6C158 247.659 166.059 239.6 176 239.6H280.9C278.18 202.9 255.44 172.8 221.72 161.46C213.92 158.84 209.68 150.32 212.12 142.52L219.08 120.32C222.06 110.8 232.32 105.74 241.6 109.12C296.86 129.24 336 182.12 336 243.6C336 256.78 333.6 269.46 329.18 281.28L358.38 340.56C361.6 347.1 359.34 355.08 353.3 358.86L364 366Z" fill="white"/>
  <path d="M309.8 279.6H310.64C312.44 273.74 313.62 267.72 314.16 261.6H302.2C292.259 261.6 284.2 269.659 284.2 279.6H309.8Z" fill="#818cf8"/>
</svg>
